<svg width="30" height="30" viewBox="0 0 30 30" fill="none" xmlns="http://www.w3.org/2000/svg">
<g clip-path="url(#clip0_122_137)">
<path fill-rule="evenodd" clip-rule="evenodd" d="M1.2948e-05 23.5V6.50001C-0.0016934 5.64594 0.165269 4.79994 0.491321 4.01055C0.817372 3.22117 1.29609 2.50393 1.90001 1.90001C2.50393 1.29609 3.22117 0.817372 4.01055 0.491321C4.79994 0.165269 5.64594 -0.0016934 6.50001 1.2948e-05H23.5C24.3541 -0.0016934 25.2001 0.165269 25.9895 0.491321C26.7789 0.817372 27.4961 1.29609 28.1 1.90001C28.7039 2.50393 29.1827 3.22117 29.5087 4.01055C29.8348 4.79994 30.0017 5.64594 30 6.50001V23.5C30.0017 24.3541 29.8348 25.2001 29.5087 25.9895C29.1827 26.7789 28.7039 27.4961 28.1 28.1C27.4961 28.7039 26.7789 29.1827 25.9895 29.5087C25.2001 29.8348 24.3541 30.0017 23.5 30H6.50001C4.77635 29.9992 3.12351 29.3141 1.9047 28.0953C0.685883 26.8765 0.000807935 25.2237 1.2948e-05 23.5Z" fill="#B2B2B2"/>
<path fill-rule="evenodd" clip-rule="evenodd" d="M24.7501 21.55C24.5215 21.6801 24.2631 21.749 24.0001 21.75H6.00006C5.73658 21.7523 5.47739 21.6832 5.25006 21.55L11.2501 15.55L12.7251 17.025C13.026 17.3147 13.3832 17.5396 13.7745 17.6858C14.1658 17.832 14.5829 17.8964 15.0001 17.875C15.417 17.8941 15.8335 17.8287 16.2245 17.6826C16.6154 17.5365 16.9728 17.3128 17.2751 17.025L18.7501 15.55L24.7501 21.55ZM25.2751 21L19.2751 15L25.2751 9C25.4052 9.2286 25.4741 9.48695 25.4751 9.75V20.25C25.4984 20.5157 25.4276 20.7812 25.2751 21ZM4.70006 21C4.56991 20.7714 4.50102 20.5131 4.50006 20.25V9.75C4.49771 9.48652 4.56683 9.22733 4.70006 9L10.7001 15L4.70006 21ZM24.7501 8.45L16.7251 16.475C16.4966 16.6946 16.2259 16.8654 15.9293 16.9772C15.6328 17.0889 15.3166 17.1392 15.0001 17.125C14.6835 17.1392 14.3673 17.0889 14.0708 16.9772C13.7743 16.8654 13.5035 16.6946 13.2751 16.475L5.25006 8.45C5.47866 8.31985 5.73701 8.25096 6.00006 8.25H24.0001C24.2631 8.25096 24.5215 8.31985 24.7501 8.45Z" fill="white"/>
</g>
<defs>
<clipPath id="clip0_122_137">
<rect width="30" height="30" fill="white"/>
</clipPath>
</defs>
</svg>
