<svg width="39" height="33" viewBox="0 0 39 33" fill="none" xmlns="http://www.w3.org/2000/svg">
<path d="M24.2718 0.389059C20.0098 0.471908 19.9769 0.471908 19.4832 0.886155C18.1174 1.97977 15.1719 4.5481 10.5315 8.67399C9.8568 9.28708 8.85302 10.1321 8.30999 10.5795L7.32267 11.3749L7.20748 10.563C7.15811 10.1156 7.09229 7.66323 7.09229 5.11147L7.07583 0.471909L0.0822771 0.505048L0.0329109 13.1976L0 25.9066H3.0278C4.6898 25.9066 6.28597 25.8569 6.56572 25.8072L7.07583 25.6912V23.9348C7.07583 22.9738 7.1252 20.5546 7.19102 18.5828L7.28975 14.9871L8.01379 15.5173C8.86948 16.1304 9.97199 17.0583 11.7492 18.6822C12.4568 19.3284 13.1808 19.9746 13.3454 20.1238C13.5099 20.2729 14.3656 21.0517 15.2542 21.8636C16.1428 22.6755 17.3111 23.7526 17.8541 24.2497C18.8579 25.1776 25.5553 31.1759 26.7072 32.2032L27.3325 32.75L29.6691 32.3855C30.9527 32.1701 33.5197 31.8055 35.3792 31.5404C37.2386 31.2919 38.6373 31.0764 38.4892 31.0599C38.0449 31.0267 35.1159 29.1046 32.1704 26.9008C30.64 25.7409 27.5628 23.2058 25.3414 21.2671C23.1199 19.3284 20.0756 16.6607 18.5617 15.3516C17.0314 14.0261 15.7972 12.9159 15.7972 12.8827C15.7972 12.8496 17.3769 11.4577 19.3022 9.80074C21.211 8.14375 23.8275 5.87368 25.111 4.7635C26.378 3.63675 28.073 2.19518 28.8957 1.53238C29.702 0.886156 30.3932 0.322781 30.4261 0.289641C30.459 0.256502 30.0641 0.23993 29.521 0.2565C28.9945 0.27307 26.6249 0.339349 24.2718 0.389059Z" fill="white"/>
<path d="M7.78008 15.3462L8.01379 15.5173C8.86948 16.1304 9.97199 17.0583 11.7492 18.6822L7.78008 15.3462ZM7.78008 15.3462L7.78957 15.0008L7.28975 14.9871L6.99434 15.3905L7.27307 15.5946L7.19102 18.5828C7.1252 20.5546 7.07583 22.9738 7.07583 23.9348L7.78008 15.3462ZM7.20748 10.563C7.15811 10.1156 7.09229 7.66323 7.09229 5.11147L7.07761 0.971906L7.20748 10.563ZM7.20748 10.563L7.24092 10.7987M7.20748 10.563L7.24092 10.7987M7.24092 10.7987L7.009 10.9855L7.32267 11.3749L7.81771 11.3046L7.77588 11.0098L8.30999 10.5795C8.85302 10.1321 9.8568 9.28708 10.5315 8.67399C15.1719 4.5481 18.1174 1.97977 19.4832 0.886155L7.24092 10.7987ZM24.2815 0.888965L24.2823 0.888947C26.1873 0.848705 28.1031 0.797611 29.0452 0.770757C28.8986 0.888943 28.7431 1.01394 28.583 1.14222L28.5821 1.14301C27.7518 1.81184 26.0522 3.25748 24.7813 4.38758C23.4966 5.49875 20.8827 7.76667 18.9753 9.42241C18.0119 10.2516 17.1345 11.0147 16.4974 11.5753C16.179 11.8554 15.9195 12.086 15.7389 12.2493C15.649 12.3305 15.5763 12.3972 15.525 12.4457C15.5001 12.4693 15.476 12.4926 15.4564 12.5128C15.4476 12.5219 15.4328 12.5374 15.4177 12.5555C15.4111 12.5635 15.3957 12.5822 15.3794 12.6073C15.3714 12.6195 15.3566 12.6434 15.3421 12.6753C15.3324 12.6967 15.2972 12.7752 15.2972 12.8827C15.2972 12.9707 15.3206 13.0368 15.3309 13.0634C15.3433 13.0958 15.3567 13.1205 15.3648 13.1346C15.3809 13.1626 15.3965 13.1834 15.4037 13.1928C15.4194 13.2134 15.4346 13.2302 15.4428 13.2391C15.4611 13.2591 15.4825 13.2807 15.5027 13.3005C15.5447 13.3418 15.6031 13.397 15.674 13.4627C15.8167 13.5951 16.0213 13.7806 16.2721 14.0051C16.7743 14.4545 17.4675 15.0653 18.2344 15.7296L18.2347 15.7299C19.2638 16.6197 21.0005 18.1378 22.7057 19.6284C23.5072 20.3289 24.3018 21.0235 25.0126 21.6438C27.2391 23.5869 30.3257 26.1301 31.8683 27.2993L31.8708 27.3012C33.3505 28.4082 34.8274 29.4457 35.993 30.2121C36.3377 30.4388 36.6569 30.6429 36.9421 30.8187C36.4738 30.8866 35.9182 30.9639 35.3129 31.0448L35.3086 31.0454L35.0724 31.0791C33.2415 31.3401 30.8274 31.6842 29.5892 31.8919C29.5882 31.892 29.5873 31.8922 29.5864 31.8924L27.4859 32.22L27.04 31.83C27.0394 31.8295 27.0388 31.829 27.0382 31.8285C25.8795 30.795 19.1927 24.8061 18.1935 23.8825L18.1917 23.8809C17.9802 23.6872 17.6705 23.4025 17.3188 23.0792C16.7747 22.5792 16.13 21.9866 15.5915 21.4945C14.7027 20.6824 13.8464 19.9031 13.6811 19.7533L13.3454 20.1238L13.6811 19.7533C13.6358 19.7122 13.5519 19.6369 13.4399 19.5363C13.1305 19.2585 12.6064 18.788 12.0864 18.3131C10.3084 16.6884 9.188 15.7438 8.30713 15.1124L7.58517 14.5837L6.81611 14.0205L6.78994 14.9734L6.6913 18.5661C6.69128 18.5666 6.69127 18.5671 6.69125 18.5676C6.62538 20.5413 6.57583 22.9659 6.57583 23.9348V25.2922L6.46911 25.3164C6.35885 25.3332 5.94142 25.3572 5.30059 25.3758C4.66399 25.3943 3.8543 25.4066 3.0278 25.4066H0.501296L0.532907 13.1995L0.532909 13.1989L0.580345 1.00269L6.57761 0.974275L6.59229 5.11147C6.59229 5.11175 6.59229 5.11203 6.59229 5.1123C6.5923 7.65446 6.65746 10.1372 6.71049 10.6178L6.71134 10.6255L6.71243 10.6332L6.82762 11.4451L6.9512 12.3162L7.63633 11.7643L8.62366 10.9689L8.62368 10.9689L8.62792 10.9654C9.17238 10.5169 10.1821 9.66696 10.8657 9.04584C15.5084 4.91795 18.4425 2.36005 19.7957 1.27645L19.7958 1.27656L19.8046 1.26917C19.9297 1.16423 19.9737 1.13218 20.0371 1.10503C20.1075 1.07492 20.2324 1.03991 20.5157 1.0107C21.0915 0.951322 22.1356 0.93068 24.2815 0.888965ZM6.57584 0.474278L0.0822771 0.505048L0.0329109 13.1976L0.00129478 25.4066L6.57584 0.474278ZM0.500002 25.9066H3.0278C4.6898 25.9066 6.28597 25.8569 6.56572 25.8072L0.500002 25.9066Z" stroke="white"/>
</svg>
