<svg width="43" height="44" viewBox="0 0 43 44" fill="none" xmlns="http://www.w3.org/2000/svg">
<path d="M16.8681 1.08638C12.4936 2.07081 8.91438 4.09992 5.85218 7.35455C-0.33187 13.9241 -1.74366 23.2058 2.23322 31.3423C6.80664 40.7044 17.3056 45.3051 27.3472 42.3719C35.1419 40.1017 41.0277 33.3112 42.3202 25.1545C42.6781 22.9647 42.4793 18.7457 41.9225 16.6764C39.9142 9.12249 34.1875 3.35658 26.6513 1.28729C24.3845 0.664489 19.2145 0.564038 16.8681 1.08638ZM25.9752 4.70263C34.0682 7.05319 39.5563 14.6473 39.079 22.804C38.5819 30.9606 33.0938 37.4699 25.0605 39.3985C23.0323 39.9008 19.3935 39.8606 17.1863 39.2981C11.8175 37.9721 7.58213 34.4965 5.15623 29.4538C3.90351 26.822 3.46605 24.592 3.58536 21.2369C3.70467 18.3037 4.16201 16.2947 5.29542 14.0647C7.7412 9.14258 12.3345 5.60669 17.8624 4.42137C19.7514 3.99947 24.0862 4.16019 25.9752 4.70263Z" fill="white"/>
<path d="M13.6866 31.8446H17.067V28.0877L18.5185 26.5408L19.9502 24.9737L22.8335 28.4091L25.7167 31.8245L27.9835 31.8446C30.0913 31.8446 30.2305 31.8245 29.972 31.503C29.8129 31.3021 28.0631 29.2328 26.0746 26.8823C24.0663 24.5518 22.4358 22.5428 22.4358 22.4222C22.4358 22.3017 24.1458 20.373 26.2138 18.1028C28.3017 15.8326 29.9919 13.8839 29.9919 13.7633C29.9919 13.6227 29.3357 13.5624 27.9636 13.6026L25.9354 13.6629L21.7001 18.2837C19.3736 20.815 17.3653 22.9245 17.2658 22.9647C17.1465 23.0049 17.067 21.3374 17.067 18.3037V13.5624H13.6866V31.8446Z" fill="white"/>
</svg>
