<svg width="30" height="30" viewBox="0 0 30 30" fill="none" xmlns="http://www.w3.org/2000/svg">
<g clip-path="url(#clip0_122_132)">
<path d="M14.6776 22.5488H16.4701C16.4701 22.5488 17.0119 22.4888 17.2876 22.1907C17.5426 21.9169 17.5332 21.4032 17.5332 21.4032C17.5332 21.4032 17.4976 18.9975 18.6151 18.6432C19.7157 18.2944 21.1294 20.9682 22.6276 21.9975C23.7601 22.7757 24.6207 22.605 24.6207 22.605L28.6276 22.5488C28.6276 22.5488 30.7238 22.4194 29.7301 20.7713C29.6494 20.6363 29.1507 19.5525 26.7507 17.325C24.2382 14.9925 24.5757 15.3713 27.6019 11.3382C29.4451 8.88192 30.1819 7.38192 29.9513 6.74067C29.7319 6.12942 28.3763 6.29067 28.3763 6.29067L23.8688 6.31692C23.8688 6.31692 23.5351 6.27192 23.2857 6.42004C23.0438 6.56629 22.8882 6.90379 22.8882 6.90379C22.8882 6.90379 22.1738 8.80504 21.2213 10.4213C19.2132 13.8319 18.4088 14.0119 18.0807 13.8C17.3176 13.3069 17.5088 11.8163 17.5088 10.7588C17.5088 7.45317 18.0094 6.07504 16.5319 5.71879C16.0407 5.60067 15.6807 5.52192 14.4263 5.50879C12.8176 5.49192 11.4544 5.51442 10.6838 5.89129C10.1701 6.14254 9.77443 6.70317 10.0163 6.73504C10.3144 6.77442 10.9894 6.91692 11.3476 7.40442C11.8107 8.03254 11.7938 9.44629 11.7938 9.44629C11.7938 9.44629 12.0601 13.3369 11.1732 13.8207C10.5638 14.1525 9.72943 13.4757 7.9388 10.38C7.02193 8.79567 6.32818 7.04254 6.32818 7.04254C6.32818 7.04254 6.19505 6.71629 5.95693 6.54192C5.66818 6.33004 5.26318 6.26254 5.26318 6.26254L0.976928 6.28879C0.976928 6.28879 0.333802 6.30754 0.0975524 6.58692C-0.112448 6.83629 0.0806774 7.35004 0.0806774 7.35004C0.0806774 7.35004 3.43693 15.2007 7.23568 19.1588C10.7213 22.7869 14.6776 22.5488 14.6776 22.5488Z" fill="#B2B2B2"/>
</g>
<defs>
<clipPath id="clip0_122_132">
<rect width="30" height="30" fill="white"/>
</clipPath>
</defs>
</svg>
